<svg viewBox="0 0 512 512" fill="none" xmlns="http://www.w3.org/2000/svg">
  <style>
    @media (prefers-color-scheme: dark) {
      .bubbles {
        fill: #fff }
      }
    }
  </style>
  <path fill-rule="evenodd" clip-rule="evenodd" d="M338.958 154.924c30.995 3.829 58.326-11.473 58.432 27.476.069 26.791-6.558 63.269 16.925 70.627-8.206 7.779-15.323 7.266-16.781 27.922-2.71 38.407 8.31 67.202-15.703 71.444-11.277 1.99-29.631.177-42.056.822l-.758 35.265c98.835 7.28 97.351-17.932 97.316-79.88-.015-27.532-6.636-38.392 23.393-38.394l.874-31.843c-30.004-.022-24.3-9.28-24.267-36.171.023-17.92 1.805-40.646-4.272-56.148-12.028-30.684-57.409-28.715-92.867-25.929l-.236 34.809Zm-267.462 81.36-19.943 2.527L51 270.208c30.095.06 24.19 9.389 24.16 36.422-.017 17.95-1.853 40.522 4.392 56.004 12.146 30.109 54.322 28.721 92.521 25.845l.275-35.266c-42.883-2.112-58.267 8.949-58.233-28.784.012-13.877.798-29.848-.155-43.481-.445-6.38-1.422-12.061-4.667-16.993l-10.829-9.838c-.306-.252-.874-.706-1.281-1.093 23.475-7.438 16.861-43.726 16.923-70.623.091-39.103 27.511-23.478 58.395-27.509l-.064-34.742c-144.593-12.49-79.275 70.763-100.94 116.133v.001Zm122.706 178.332c18.582.113 64.32-1.872 78.186 1.515l1.063 10.372c-18.196 11.406-82.014-3.083-107.562 5.058-2.46 18.673-2.763 22.507 9.068 22.507h161.58c12.06 0 10.591-1.698 9.419-22.529l-24.634-1.781c-3.615-7.858-10.164-31.206-11.845-40.931H201.94l-7.738 25.789Z" fill="#00947A"/>
  <path class="bubbles" fill-rule="evenodd" clip-rule="evenodd" d="M273.832 200.221c0 19.791-.742 34.107 1.236 53.507 12.458 6.04 36.919 3.582 55.558 3.582 20.608 0 15.026-15.629 15.026-57.089 0-5.883-1.049-8.493-2.379-12.589-11.392-3.636-39.728-2.14-54.026-2.14-11.216 0-15.415 3.884-15.415 14.729Zm-67.793-66.997c0 50.582-7.515 43.085 43.796 43.085 16.728 0 12.771-5.599 12.771-43.085 0-17.309-4.137-13.481-42.328-13.481-11.773 0-14.239 1.237-14.239 13.481Zm63.816-65.08 1.366 27.726c14.83 2.152 22.571 1.926 37.462-.094 2.18-14.5 1.844-22.36.089-36.946-14.563-2.72-22.245-1.978-37.115-.54l-1.802 9.853Z" fill="#1B1918"/>
</svg>