<svg viewBox="0 0 111 134" fill="none" xmlns="http://www.w3.org/2000/svg"><path d="M17.339 40.557c5.098 2.87 8.158 4.197 13.243 1.279 2.088-1.199 2.997-3.785 3.193-6.065.542-6.287-.54-12.143 2.851-17.871 3.743-6.324 14.133-16.172 22.75-13.428 5.678 1.807 10.444 4.14 11.234 10.665.859 7.093-2.364 13.403-3.668 20.2-.89 4.643-.483 11.025 4.72 12.92 5.072 1.846 11.893.672 17.313 1.547 7.412 1.196 11.331 7.822 15.355 13.47 4.017 5.637 2.4 13.282-3.194 17.155-3.368 2.332-7.596 2.882-11.52 3.687-5.901 1.21-11.742 3.423-16.596 7.072-8.19 6.16-8.988 17.519-15.175 25.354-4.397 5.569-17.732 17.63-25.492 11.993-8.522-6.192-5.912-19.495-5.376-28.372.414-6.846-2.089-12.52-7.7-16.648-2.234-1.644-4.997-2.256-7.164-4.019-3.32-2.698-5.304-7.143-6.484-11.147-4.058-13.767-.881-23.857 13.47-28.64m22.203 26.814c-.733.793-1.936 2.174-.884.124.756-1.474 1.7-2.883 2.259-4.45.863-2.42-4.12 3.126-4.4 3.429a148.1 148.1 0 0 1-1.406 1.502m0 0c-1.73 1.827-3.5 3.669-4.995 5.662-2.079 2.772 1.304-1.26 4.995-5.662Zm0 0c2.168-2.586 4.443-5.299 5.779-6.835.82-.943 1.955-2.017 2.663-3.116.149-.233-.56.121-.775.294-4.072 3.255-7.643 7.334-11.253 11.091-1.256 1.308-4.293 5.655-3.773 3.918.294-.985 1.116-1.983 1.641-2.847 1.808-2.969 3.67-5.905 5.518-8.848 2.056-3.273 4.37-6.51 6.05-10.003.375-.778-.308-.114-.493.065-1.282 1.247-2.368 2.728-3.488 4.116-3.52 4.365-6.923 8.824-10.454 13.18-.39.48-2.446 2.733-2.398 2.621.57-1.324 1.736-3.147 3.09-5.057m0 0c3.914-5.522 9.392-11.769 6.505-8.764-1.486 1.547-2.7 3.408-3.99 5.118-.879 1.167-2.13 2.282-2.515 3.646Zm0 0a3.055 3.055 0 0 0-.116.739m12.92-2.475c-2.326 1.11-4.697 2.59-5.19 5.361-.16.906.366 2.066 1.417 1.87.344-.063.68-.17 1.01-.314m0 0c2.471-1.08 4.526-4.194 6.176-5.972 1.597-1.721 6.445-6.83 4.77-5.185-2.316 2.274-4.542 4.648-6.818 6.963-1.297 1.319-2.85 2.687-4.128 4.194Zm0 0c-.638.752-1.207 1.54-1.64 2.372-.807 1.55 3.617-2.275 3.988-2.628 3.064-2.915 6.036-5.93 8.969-8.975 2.57-2.67-1.934 2.913-2.312 3.41-2.805 3.688-6.047 7.166-8.483 11.117-.134.218-1.454 2.298-.807 2.52 1.15.394 2.862-1.133 3.635-1.762 1.718-1.397 4.463-3.76 7.247-6.173m0 0c5.945-5.151 12.066-10.522 8.74-7.165-2.972 3-5.91 6.025-8.799 9.099m.06-1.934c-.128.751-.173 1.441-.06 1.933m.06-1.933c.318-1.875 1.153-4.132 1.339-4.655 1.583-4.456 3.979-8.48 6.165-12.648.24-.458.398-.801.49-1.05m-8.054 20.287a360.442 360.442 0 0 0-3.927 4.243c-1.293 1.421-2.603 2.832-3.648 4.452-.024.037-1.105 1.454-.422 1.31 1.266-.268 2.565-1.933 3.433-2.728 2.15-1.968 4.241-3.998 6.404-5.953 4.288-3.876 8.838-7.639 13.762-10.685 1.242-.768 3.253-1.415 4.255-2.497.26-.282-1.772.36-1.976.47-3.173 1.712-5.945 4.2-8.764 6.419a172.4 172.4 0 0 1-5.663 4.263c-.695.502-1.7 1.447-2.639 1.458-.457.005-.707-.285-.815-.752Zm8.053-20.288c.137-.372.123-.533.009-.548m-.009.548c0-.185.004-.368.009-.548m-.009.548c-.005 2.208.358 4.802 1.849 6.416 1.198 1.298-.207-5.104-.307-5.735-.378-2.383-.66-4.736-.672-7.093m-.861 5.864c-.427-.053-2.262 1.937-3.01 2.67-3.535 3.469-6.924 7.456-10.879 10.46-.412.314 1.378-3.012 1.577-3.347 2.208-3.717 4.615-7.47 6.234-11.494 1.71-4.248-2.806.309-3.768 1.312-1.092 1.136-2.143 2.322-3.29 3.403-.22.208-.39.602-.692.587-.947-.05 1.025-1.598 1.597-2.354 2.565-3.386 5.43-6.628 7.625-10.28.8-1.332-.417-.119-.824.28-1.336 1.311-2.482 2.811-3.722 4.21A120.927 120.927 0 0 1 43 53.063c-.39.385-.355.228-.181-.206 1.29-3.231 3.577-6.195 5.393-9.142 1.945-3.157 3.86-6.34 5.519-9.658 1.858-3.72 2.997-7.726 4.481-11.596.72-1.875 2.106-3.329 2.488-5.336.37-1.94-.135-3.19-1.185-4.245m-1.895 38.987c.004-.144.01-.285.017-.424.09-1.866.414-3.663.844-5.44m1.034-33.123c-.411-.414-.906-.797-1.464-1.18-.855-.586-2.528-1.622-3.924-1.861m5.388 3.04c.479-.277.972-.539 1.477-.785.082-.04.187-.093.31-.156m-1.787.942c-2.066 1.197-3.87 2.688-5.297 4.518m-.091-7.56c-.381-.065-.742-.07-1.06.008-.727.18-1.403.704-2.056 1.226m3.116-1.233c-1.131.437-2.21.913-3.116 1.233m3.116-1.233c1.39-.538 2.86-1.017 4.18-1.074m-7.296 2.307c-.427.34-.844.68-1.26.922-1.719 1.003-3.347 2.246-5.05 3.295-3.497 2.154-5.357 6.978-6.295 10.676-.438 1.727-.644 3.354-.736 5.133-.061 1.179-.171 2.351-.263 3.528-.017.217-.27 2.786-.316 2.766-.646-.277-.51-3.844-.519-4.402-.03-1.977.132-3.913.393-5.87.431-3.223.99-6.178 2.381-9.127l.03-.063c.734-1.558 1.464-3.105 2.432-4.534.96-1.416 2.42-1.533 3.922-1.949 3.736-1.033 8.465-4.885 12.445-2.754m-7.164 2.379a8.85 8.85 0 0 1-.948.285c-2.823.646.87-2.146 2.335-2.322.92-.11 1.865-.049 2.79-.087 1.121-.046 2.06-.253 2.987-.255m0 0c.044.023.087.047.131.072m-.131-.072c.38-.002.758.031 1.145.124m-1.014-.052c.48.274.947.637 1.4 1.103.609.627 1.087 1.364 1.596 2.07m-2.996-3.173c.35-.014.69 0 1.014.052m1.982 3.121c.25.349.509.69.794 1.007.418.464 2.04 1.386 2.267.887M61.3 11.938c.312-.157.74-.373 1.213-.58m1.848 2.474c.065-.144.014-.405-.214-.829-.392-.727-.782-1.31-1.226-1.816m1.44 2.645a3.468 3.468 0 0 0-.286-.389c-.557-.656-1.048-1.38-1.562-2.085m1.848 2.474c.99 1.565.434 3.537.216 5.322-.393 3.198-.972 6.474-1.64 9.62-.178.834-.36 1.665-.55 2.495m.534-20.082c-.513-.585-1.099-1.067-1.844-1.55m1.844 1.55c1.129-.45 2.377-.753 2.857-.094 1.422 1.955 1.549 4.367.99 6.675-.942 3.899-2.296 8.08-3.717 11.833a59.703 59.703 0 0 1-.664 1.669m.534-20.083a13.69 13.69 0 0 0-.408.171m-1.436-1.72a15.485 15.485 0 0 0-.401-.252 4.696 4.696 0 0 0-1.358-.57m1.759.821c-.502-.462-1.1-.716-1.759-.82m1.759.82.126.122c.48.492.902 1.04 1.31 1.6m-.126 19.91a172.312 172.312 0 0 1-2.56 9.882c-.473 1.624-.955 3.23-1.348 4.852m3.908-14.733c-1.244 3.009-2.598 5.796-3.334 9.104-.42 1.89-.583 3.761-.574 5.63m-4.263-28.606a15.735 15.735 0 0 0-2.507 4.67 46.672 46.672 0 0 0-1.68 6.448m4.187-11.118c.852-.157 1.639-.027 2.182.61 1.564 1.83-.703 7.52-1.246 9.327-1.074 3.574-2.399 7.189-4.073 10.53-.965 1.928-1.512.67-1.62-.912-.136-1.993-.045-4.07.215-6.144m4.542-13.41c-1.677.308-3.607 1.725-4.436 2.572m.25 8.545c-.14.761-.26 1.527-.355 2.293m.355-2.293c-.51.974-1.022 1.947-1.543 2.916-.275.511-1.027 2.23-1.872 3.796m3.415-6.712.56-1.07c.225-.428.618-1.715.742-1.247.281 1.062-.737 3.057-1.657 4.61m0 0c-.423.712-.824 1.331-1.07 1.725-.581.931-1.26 1.83-1.99 2.694m3.165-15.258a4.738 4.738 0 0 0-.093.099c-2.754 2.975-5.11 7.004-5.59 11.086-.21 1.792.9 4.944 2.702 2.38 2.034-2.896 3.737-6.645 3.61-10.25-.02-.552-.101-2.317-.629-3.314Zm0 0c-.373-.707-.971-1.028-1.93-.255-2.582 2.08-3.417 6.533-4.008 9.549-.099.502-1.49 8.038.133 8.802m0 0c.07.033.145.053.226.06.65.055 1.578-1.348 2.414-2.898m-2.64 2.838c.9-.9 1.803-1.847 2.64-2.838m-2.64 2.838c-.207.208-.415.414-.622.617-1.561 1.535-3.188 3.044-4.99 4.296-1.026.712-1.684.817-1.192-.65.082-.245 2.284-4.755 2.139-4.817-.995-.425-2.948 3.325-3.712 3.865-1.732 1.224-3.388 2.566-5.198 3.685-1.565.97-4.54 1.401-6.348 1.433-2.15.038-2.992-.732-4.722-1.687-1.256-.694-2.634.834-3.53 1.578-1.426 1.185-3.43 2.536-4.39 4.124-1.17 1.934-1.399 4.403-2.046 6.541-1.326 4.378.024 7.514 3.25 10.787m3.961-23.996c-2.792.128-3.198.299-4.895 2.014a15.397 15.397 0 0 0-1.538 1.831c-.785 1.103-.764 3.113-.916 4.4-.483 4.082-1.91 8.424-.557 12.554.934 2.85 1.955 5.684 2.973 8.503 1.217 3.372 3.973 4.691 7.213 5.566 3.945 1.065 5.934.853 8.938-2.384a104.736 104.736 0 0 0 3.13-3.53m0 0c4.825-5.694 9.149-12.036 12.469-18.673m-12.47 18.674c-.664-.17-1.113-.792-1.339-1.608m1.34 1.608c.546.138 1.237-.029 2.072-.646 4.272-3.162 7.07-9.134 8.957-13.95.528-1.347 1.028-2.7 1.44-4.078m0 0c.41-.82.804-1.642 1.182-2.47.324-.709 1.212-2.492 1.428-3.983m-2.61 6.453c.377-1.26.681-2.54.867-3.855.042-.293.11-.66.163-1.053m1.58-1.545c.13-.897.017-1.688-.61-2.075-1.518-.937-3.843-.1-5.545.921m6.155 1.154a89.546 89.546 0 0 1-1.58 1.545m1.58-1.545c2.365-2.375 4.55-4.92 6.086-7.925.922-1.803 1.755-4.633 3.497-5.867.456-.323 1.022-.813 1.572-.975.254-.075-1.013 3.71-1.08 3.87-3.79 8.988-8.306 17.714-12.19 26.678-1.866 4.306-3.317 9.05-5.531 13.187-.813 1.518-2.147 1.57-3.693 1.582m5.184-31.704c-.569.341-1.067.703-1.443 1.026-.958.823-1.76 1.837-2.457 2.943m3.9-3.969c1.562-.735 3.072-.958 4.11.023.637.602.594 1.718.465 2.676m-4.575-2.699c-1.772.834-3.612 2.328-4.91 3.477m1.01.492c-1.22 1.937-2.117 4.157-2.959 6.135a64.892 64.892 0 0 0-1.629 4.19m4.588-10.325c1.446.997 1.88 2.871 1.825 4.867m-1.825-4.867a3.878 3.878 0 0 0-1.01-.492M31.36 60.81c-.954 2.76-1.671 5.6-1.923 8.512a5.378 5.378 0 0 0 .147 1.866M31.36 60.81c-.721.584-1.447 1.16-2.177 1.729m2.177-1.73a180.163 180.163 0 0 0 6.413-5.458m-8.189 15.837c-.426.19-.873.331-1.341.413-.996.173-1.723-.026-2.243-.461m3.584.048c3.456-1.546 5.571-6.374 6.806-9.513.573-1.457 1.317-3.975 1.383-6.324m6.65-6.137c-.576.55-1.156 1.095-1.734 1.637a253.706 253.706 0 0 1-4.916 4.5m-2.835-5.36c-.58.514-1.052.958-1.361 1.244-1.963 1.81-3.74 3.834-5.195 6.06m6.556-7.303-.023-.008c-3.324-1.06-7.24 1.81-9.995 4.458m3.462 2.854c-1.307 2-2.353 4.164-3.039 6.485-.143.487-.292 1.16-.393 1.909m3.432-8.394c.563 1.066.874 2.329.875 3.634 0 .525-.024 1.063-.074 1.609m-.801-5.243c-.751-1.424-1.951-2.497-3.462-2.854m.03 11.248c-.264 1.94-.213 4.393 1.05 5.45m-1.05-5.45c-1.035.715-2.278 1.504-3.569 2.112m3.569-2.112c.618-.428 1.162-.83 1.598-1.151.885-.655 1.763-1.322 2.635-2M26 71.14c-.833 1.08-1.832 2.008-3.002 2.693-2.765 1.62-5.676.014-5.971-3.136-.007-.07-.013-.141-.018-.212m8.99.656c1.872-2.426 2.91-5.624 3.184-8.601m-4.263-8.097-.246.238m.246-.238a4.796 4.796 0 0 0-.29-.06m.044.298a39.541 39.541 0 0 0-1.82 1.911 27.227 27.227 0 0 0-2.872 3.879m4.692-5.79c.183 1.402.1 2.863-.095 4.094-.356 2.251-1.3 6.329-3.198 9.028m3.293-13.122c-.014-.1-.028-.198-.044-.297m-4.648 6.087a24.245 24.245 0 0 0-1.63 3.147m1.63-3.147c-.087 1.575-.53 2.885-1.63 3.147m1.63-3.147c.087-1.58-.182-3.427-.501-4.748m-1.129 7.895c-.718 1.69-1.211 3.453-1.339 5.186m1.339-5.186c-.425.1-.949.046-1.588-.211-1.308-.526-1.97-1.776-2.233-3.265m2.482 8.662a11.46 11.46 0 0 0-.004 1.681m.004-1.68c-.887-.1-1.7-.458-2.37-1.181-.786-.846-1.318-1.99-1.646-3.27m4.016 4.45c1.36.152 2.895-.308 4.368-1.001m-4.372 2.682c-3.766.074-4.421-3.204-4.012-6.13m4.012 6.13c.09-.002.182-.005.276-.011 1.7-.103 3.044-1.175 4.096-2.671m3.25-13.42c-.859-.147-1.81-.067-2.83.301-.789.284-1.569.631-2.32 1.038m5.15-1.338c-.307-1.913-1.138-3.674-2.901-4.529-2.464-1.194-4.753.247-5.962 2.413m3.713 3.454c-1.975 1.072-3.752 2.56-4.95 4.42m4.95-4.42c-.154-.639-.32-1.155-.462-1.458-.526-1.118-1.195-2.615-2.663-2.205a4.445 4.445 0 0 0-.588.209m-1.237 7.874a9.827 9.827 0 0 0-1.309 3.027c-.092.382-.169.78-.225 1.185m1.534-4.212c-.432-2.454.223-5.554.873-7.122.107-.258.229-.51.364-.752m-2.771 12.086c-.8-3.116-.396-7.044.488-9.472.44-1.209 1.157-2.12 2.283-2.614m12.274 27.004c-.841.11-1.6.212-2.323.263m0 0c-1.365.096-2.604.01-4.028-.552-.349-.137.046 1.12.105 1.266.952 2.349 2.684 1.9 4.25 3.275.133.117.261.234.385.354m-.712-4.343c.238 1.448.479 2.895.712 4.343m-.712-4.343-.104-.63c-.57-3.474-.897-7.294.292-10.678 1.353-3.854 4.195-5.979 7.488-8.14m-6.964 23.79c3.63 3.5 3.623 8.352 3.464 13.207-.064 1.938.493 3.812.399 5.741-.063 1.29-.146 2.589-.24 3.888m-3.623-22.835c.145.897.287 1.796.424 2.696.385 2.528 1.078 5.02 1.623 7.523.925 4.243 1.162 8.374 1.576 12.616m0 0a339.537 339.537 0 0 1-.28 3.57c-.192 2.308.498 4.332.936 6.568.046.234.102.457.169.671m-.825-10.809c.07.72.146 1.444.23 2.172.335 2.878.322 5.767.595 8.637m0 0c.566 1.824 1.818 3.004 2.68 4.726.586 1.174 1.762 2.582 2.767 3.378.342.271 2.984 1.858 1.88 2.444-3.18 1.686-6.508-5.406-6.937-7.695-.177-.948-.3-1.9-.39-2.853Zm6.369-49.157c-1.41 3.685-3.459 7.89-4.704 12.118m0 0c-.522 1.772-.903 3.55-1.036 5.295m1.036-5.295c.872-1.627 1.759-3.035 1.876-3.195.747-1.02 2.692-3.645 4.224-3.405 1.013.158-.532 3.803-.691 4.195-.537 1.323-1.124 2.747-1.792 4.139m-3.617-1.734c-1.34 2.5-2.644 5.517-1.048 5.297a4 4 0 0 1 .012-.002m0 0c-.032.423-.05.843-.051 1.262-.005 1.191 1.328.501 1.77-.03 1.145-1.379 2.103-3.061 2.934-4.793m-4.653 3.56c1.746-.25 3.43-2.25 4.653-3.56m0 0c.122-.13.24-.255.353-.37a337.098 337.098 0 0 0 9.453-10.023c1.443-1.593 2.894-3.939 4.73-5.09.877-.549-1.096 1.76-1.707 2.595-1.312 1.793-2.652 3.583-3.955 5.4m0 0c-2.65 3.698-5.148 7.509-6.942 11.692-.041.096-1.598 3.643-.67 3.545 1.341-.14 2.575-2.734 3.17-3.687 1.562-2.504 2.968-5.12 4.291-7.757.15-.299 1.94-3.98.752-3.933a1.794 1.794 0 0 0-.601.14Zm0 0c-1.41.574-2.9 2.748-3.632 3.641-2.786 3.398-5.419 6.994-7.698 10.754-1.193 1.967-3.59 5.44-3.104 7.896.254 1.289 3.155-1.418 3.437-1.716 1.772-1.87 3.43-3.872 5.003-5.946m0 0c2.333-3.077 4.48-6.316 6.536-9.529.199-.31 1.333-2.354 1.15-2.21-1.763 1.391-3.076 3.939-4.225 5.805-1.2 1.948-2.37 3.92-3.462 5.934Zm0 0a69.534 69.534 0 0 0-2.663 5.43c-.878 2.023-2.863 5.432-2.37 7.776.307 1.466 2.4-.169 2.834-.603a41.63 41.63 0 0 0 2.901-3.252m0 0c1.667-2.053 3.21-4.232 4.78-6.308 2.205-2.916 4.338-5.883 6.616-8.743l.407-.509M39.743 98.71c3.653-5.35 7.604-10.498 11.738-15.481l.065-.079M39.743 98.71c-1.639 2.401-3.218 4.843-4.727 7.329-.782 1.289-3.242 4.403-2.738 6.12.37 1.262 1.977.125 2.508-.296a37.754 37.754 0 0 0 2-1.707m14.76-27.006c.92-1.14 1.35-1.629 0 0Zm-14.76 27.006c4.639-4.232 8.361-9.534 12.383-14.287 1.023-1.208.728-.761-.018.24-1.944 2.606-3.788 5.301-5.649 7.967-2.548 3.65-5.98 8.245-6.82 12.757-.17.91-.108 1.614.63 2.202.898.713-.584 3.546-.746 5.218m.22-14.097c-1.1 3.654-1.485 7.491-.766 11.493.138.768.3 1.694.546 2.604m.22-14.097c1.606-5.329 4.736-10.268 8.194-14.764 3.112-4.046 6.665-7.468 10.827-10.313m-19.241 39.174c-.03.306-.015.574.066.782.072.181.18.317.32.413m-.386-1.195c.11.406.237.81.387 1.195m0 0c1.544 1.054 6.895-2.705 7.634-3.28 3.053-2.38 4.252-5.814 6.382-8.933 2.317-3.39 4.378-6.938 6.682-10.341 2.994-4.42 4.692-10.433 8.616-14.112 1.259-1.18.724 1.62.62 2.153a28.786 28.786 0 0 1-2.045 6.397c-1.66 3.632-3.745 7.013-5.288 10.705-1.911 4.573-4.208 8.414-7.648 12.016-1.42 1.487-2.717 3.111-4.603 4.05-2.111 1.052-3.875 3.35-6.214 3.952-2.247.578-3.438-.813-4.136-2.607Zm18.854-40.369c.53-.362 1.07-.716 1.62-1.06m-1.62 1.06c-.048-.094.047-.362.357-.88 2.571-4.296 5.98-8.196 9.51-11.727 1.582-1.581 3.596-3.976 5.785-5.509M55.807 85.078c.104.206.89-.413 1.62-1.06m0 0c.181-.113.364-.225.547-.336.585-.355 2.252-1.345 1.907-.755-.81 1.384-2.2 2.578-3.186 3.848-3.3 4.25-6.316 8.749-9.051 13.381-2.545 4.309-4.878 8.738-6.79 13.367-.942 2.28-2.275 5.097-2.043 7.645.183 2.011 1.849.689 2.66-.171 2.89-3.068 5.082-6.982 7.24-10.572a209.154 209.154 0 0 0 6.847-12.298m1.869-14.108a21.909 21.909 0 0 0 1.278-1.216 284.56 284.56 0 0 0 12.754-15.841m-15.9 31.165c2.02-3.94 3.907-7.942 5.602-11.937.192-.453 1.83-3.892.182-2.843-2.953 1.88-5.083 6.084-6.907 8.908-2.707 4.19-5.473 8.709-6.904 13.533-.69 2.325.867 2.087 2.06.666 2.183-2.599 4.12-5.436 5.966-8.327Zm0 0c1.386-2.172 2.722-4.374 4.072-6.53 4.103-6.552 8.182-13.12 12.277-19.677.151-.242 3.922-6.735 2.134-6.247-.877.24-1.743.7-2.583 1.289m0 0a76.134 76.134 0 0 0 2.399-3.387c.35-.528 1.322-1.698 1.177-2.458-.4-2.107-6.606 2.455-7.048 2.768a56.433 56.433 0 0 0-2.519 1.893m0 0c-3.239 2.575-6.208 5.48-9.034 8.504-.025.026-4.071 4.949-2.88 5.168 1.62.298 4.614-4.208 5.462-5.227 2.263-2.717 4.57-5.443 6.452-8.445Zm0 0c.19-.302.374-.607.554-.914.342-.584 3.676-5.935 2.716-6.584-1.21-.816-4.115 2.026-4.839 2.616-.77.627-3.944 4.106-5.18 3.588-.744-.31-.346-6.405-.506-7.383M63.8 14.306c1.541 1.602 2.523 2.27 1.969 4.412-.261 1.01-.687 1.996-1.08 2.98m0 0c-.132.33-.26.66-.378.991-.693 1.959-1.449 3.896-1.789 5.956-.559 3.39-1.033 6.56-.306 9.912m2.473-16.86c.125-.036.248.037.363.266 1.055 2.109-1.13 5.343-1.689 7.318-.89 3.15-1.194 6.14-1.147 9.276m2.473-16.86c-.572.166-1.187 2.59-1.238 2.754-1.873 5.962-4.364 12.732-4.016 19.058.11 1.995.588 3.954 1.834 5.542.977 1.245 2.715 1.493 4.157 1.9.701.197 1.408.425 2.114.682m-5.324-13.077.007.036c1.08 4.93 3.401 10.632 7.994 13.157m-8.001-13.193c.016 1.113.077 2.244.17 3.407.3 3.704 2.098 7.607 5.154 9.67m2.677.116c.134.074.271.145.41.214m-.41-.214c.168.003.308.07.41.214m-.41-.214c-.3-.007-.69.183-1.128.496m1.538-.282c.629.31 1.298.563 2.011.748.388.1.85.268 1.33.416m-3.34-1.164c.028.04.053.086.076.139.112.261.127.554.068.866m3.197.16c.732.226 1.505.408 2.122.243.903-.243-.58-.245-2.122-.244Zm0 0c-.833 0-1.684.002-2.187-.032a8.694 8.694 0 0 1-1.01-.128m0 0a9.015 9.015 0 0 1-.17-.033m.17.033-.01.045m-.16-.078a8.43 8.43 0 0 1-1.704-.548m1.705.548a32.227 32.227 0 0 0-1.514-.69m1.514.69.16.078m-1.865-.626a8.794 8.794 0 0 1-1.358-.754m1.358.754a6.68 6.68 0 0 1 .191-.142m-.191.142c-.996.768-2.185 2.084-3.059 3.12m1.7-3.873c.52.188 1.037.393 1.55.61m1.674.77a29.177 29.177 0 0 1 3.8 2.24c.794.555 1.582 1.119 2.367 1.686m-6.167-3.927c-.16.749-.74 1.608-1.454 2.43m7.621 1.497c2.865 2.07 5.694 4.192 8.596 6.205.51.354 1.75 1.483 2.488 1.266.672-.198-1.702-2.255-1.915-2.43-2.594-2.12-5.804-3.88-9.169-5.04Zm0 0c-2.353-.811-4.782-1.329-7.128-1.471-.165-.01-.33-.02-.493-.027m0 0c-1.184-.056-2.341-.051-3.47.066m3.47-.066c-1.15 1.322-2.652 2.545-3.31 3.051-1.144.879-2.594 1.944-4.13 2.48m3.97-5.465c-2.067.213-4.036.802-5.895 2.076-.805.552-3.086 2.94-1.206 3.54 1.037.33 2.103.208 3.131-.15m3.97-5.466a44.413 44.413 0 0 0-1.23 1.523l-.05.066c-.716.935-1.79 2.34-2.69 3.876m0 0c-1.252 2.14-2.162 4.535-1.288 6.273 2.357 4.684 14.253-3.343 17.15-4.647 1.275-.574.831.259.281 1.078-1.497 2.228-3.27 4.285-4.996 6.336-.187.223-6.334 7.678-5.107 7.779.07.006.143.004.219-.004m0 0c1.047-.118 2.509-1.536 3.15-2.033 2.516-1.952 4.832-4.137 7.154-6.31 1.745-1.634 3.507-3.25 5.243-4.892 1.136-1.074-.064-.192-.52.168-5.156 4.071-10.353 8.372-15.027 13.067Zm0 0a91.9 91.9 0 0 0-3.157 3.328c-.853.946-2.526 1.838-2.258 3.084.052.241.517.036.736-.078 1.441-.755 5.89-4.078 6.562-4.573a468.703 468.703 0 0 0 4.993-3.747m0 0c3.66-2.773 7.316-5.556 11.11-8.13 1.504-1.02-2.29 1.869-2.492 2.044a303.665 303.665 0 0 0-6.22 5.525m-2.397.56c.792-.207 1.593-.389 2.397-.56m-2.397.56c-.563.148-1.122.308-1.674.485m4.07-1.045a217.766 217.766 0 0 0-7.665 7.342c-1.36 1.372-2.728 2.854-3.767 4.497l-.003.005c-.186.294-1.523 2.41-.129 1.768 2.18-1.006 4.16-2.75 6.19-4.025 2.804-1.758 5.701-3.45 8.615-5.018.52-.28 1.035-.57 1.548-.861M77.4 75.241c2.99-.637 6.025-1.125 8.852-2.197 2.12-.804 3.69-2.477 5.726-3.407.696-.318-1.442 2.743-1.73 3.044-.329.341-3.513 3.27-1.381 2.648.212-.061.428-.131.647-.208m-7.326 3.828c.723-.412 1.444-.829 2.175-1.23.497-.272 2.07-.838 1.505-.79-1.137.094-2.52 1.112-3.68 2.02Zm0 0c-.518.404-.99.787-1.38 1.055a178.447 178.447 0 0 0-8.846 6.528c-2.188 1.724-4.434 3.393-6.565 5.188-1.293 1.09-.18.888.802.316 5.237-3.044 9.697-7.434 15.12-10.146 1.777-.888 3.355-.653 5.076-1.255 1.505-.526 3.008-1.019 4.487-1.617 3.133-1.266 6.961-2.221 8.403-5.739.595-1.452.841-3.022.266-4.516-.918-2.384.317-.138.657.977.713 2.338-.658 4.168-2.244 5.734-.483.476-5.039 4.6-3.981 4.475 2.792-.328 5.702-3.64 6.853-6.03 1.128-2.346 1.156-4.387.808-6.94-.243-1.776-1.42-3.28-2.656-4.527-1.241-1.253-2.166-2.753-3.46-3.956-.82-.762-1.74-1.319-2.712-1.776m0 0c-.857-.402-1.753-.727-2.653-1.045m2.653 1.046c-.03-.12-.06-.237-.091-.352-.367-1.337-2.366-5.486-4.415-3.729-1.012.868.192 1.739.978 2.18.345.195.627.501.875.855m2.653 1.046c.265 1.063.456 2.303.563 3.613m-3.216-4.659c-1.153-.407-2.312-.803-3.405-1.34-2.156-1.059-4.55-1.6-6.948-1.427-1.395.1-.774.368.227.767 2.156.859 4.358 1.601 6.63 2.084 1.21.256 2.472.4 3.447 1.238.987.848 1.533 2.09 2.442 3.017.2.203.536.757.89 1.379m-3.283-5.718c.42.602.744 1.34 1.111 1.902.617.942 1.42 1.818 2.105 2.757m.067 1.059c.654 1.152 1.364 2.535 1.352 2.344-.085-1.314-.684-2.395-1.42-3.403m.068 1.059c-.017-.357-.039-.71-.067-1.06m.067 1.06c.137 3.01-.169 6.226-1.048 8.42-.746 1.863-1.97 3.505-2.884 5.308m0 0c-.204.403-.393.814-.558 1.237-1.034 2.659 1.445-.927 1.84-1.528.077-.118.16-.24.246-.366m-1.528.657c.51-.18 1.03-.4 1.528-.657m0 0c.98-1.429 2.449-3.323 2.532-5.034.014-.292-.334-1.215-.053-.778 1.675 2.612-.175 4.62-2.48 5.812Z" stroke="#000" stroke-width="7" stroke-linecap="round"/></svg>