<svg viewBox="0 0 113 88" xmlns="http://www.w3.org/2000/svg"><path d="M7.738 14.526c-1.143 4.146-1.873 6.53-4.296 9.666-.88 1.14-2.027 2.16-2.797 3.374-.344.542 5.604-.072 6.734-.04 5.875.168 5.63 2.026 1.86 5.407-.952.853-8.774 7.129-3.878 4.968.969-.427 8.452-3.588 8.725-2.762.557 1.683-5.345 8.225-6.324 9.824-1.82 2.973-3.396 6.095-5.168 9.096-1.402 2.377-1.856 3.698 1.542 2.349 2.326-.924 14.16-6.505 9.573.801-1.525 2.428-9.268 11.892-1.126 8.958 1.62-.584 6.8-3.44 8.574-2.257 2.106 1.404-.802 6.961-1.481 8.465-.704 1.559-3.271 5.66-2.584 7.427.377.97 8.013-3.75 8.596-4.13 1.694-1.105 3.507-3.34 5.699-3.406 1.339-.041 2.816 9.647 3.45 11.13 3.204 7.498 3.619-12.799 7.19-7.245 2.042 3.177 8.062 16.888 9.883 7.249.51-2.697.732-7.917 4.821-6.81 3.242.877 5.66 5.615 8.15 7.714 5.153 4.347 1.94-8.968 2.46-8.428 2.35 2.436 4.893 3.911 8.342 4.344 1.218.153 8.823 1.293 8.753-.763-.08-2.36-6.024-7.225-4.239-5.678 3.133 2.712 6.697 4.132 10.604 5.333 1.212.373 7.486 1.852 6.348-1.492-.956-2.807-5.347-4.102-7.125-6.464-.536-.711 1.975-.018 2.15.03 2.526.695 5.171.9 7.782.91 3.699.011 7.919-.035 10.948-2.483 3.489-2.82-9.149-5.108-10.112-5.592-1.162-.582 3.574-2.244 4.389-2.837 2.013-1.466 2.981-3.596 4.281-5.642 1.036-1.63 4.046-4.375.813-4.92-2.292-.387-9.806-.007-10.964-2.146-1.661-3.068 4.535-9.856 5.73-12.609.475-1.096 4.462-7.541 1.456-5.305-.728.541-6.75 3.572-7.324 2.37-1.713-3.587 1.45-10.437 1.095-14.476-.136-1.55-1.075-7.198-3.421-4.835-.778.784-5.548 7.297-6.513 6.885-1.229-.523.555-11.381.304-12.967-.779-4.93-3.397 1.74-4.559 3.018-3.266 3.59-6.21-1.158-8.28-3.762-.532-.67-5.411-8.769-5.917-5.27-.266 1.836 1.753 11.934-1.68 7.953-2.91-3.377-5.933-6.716-10.226-8.31-3.407-1.264.343 6.762.73 7.995.655 2.082-2.193-1.155-2.4-1.367-2.285-2.352-4.827-4.173-7.818-5.492-4.027-1.774-5.766-1.728-3.963 2.8 2.708 6.8-.833 2.056-4.508.218-2.737-1.368-6.169-2.182-8.951-.474-1.498.92 3.124 7.175 2.105 6.875-4.097-1.206-7.805-4.06-12.212-2.21-3.927 1.647 2.334 6.713 3.84 7.933 2.61 2.115-5.34-1.636-6.109-2.198-.828-.606-7.915-3.98-5.31-.5 12.442 16.63-6.39-5.371-8.226 1.055" stroke="#000" stroke-width=".875"/></svg>