<svg viewBox="0 0 111 84" fill="none" xmlns="http://www.w3.org/2000/svg"><path d="M31.02 27.15c-4.975-.547-8.835-.783-13.085 1.93a37.733 37.733 0 0 0-9.404 8.56C4.24 43.141.28 51.94 2.185 59.125 4.93 69.48 16.78 73.503 26.406 74.424c5.837.558 10.351 2.182 15.54 4.776 5.443 2.722 10.96 3.714 17.055 3.246 16.142-1.239 27.514-16.508 38.645-26.644 4.56-4.152 9.128-8.75 10.73-14.892 1.777-6.809 1.409-12.88-.922-19.47-4.511-12.761-17.65-20.585-30.9-19.814-13.032.76-21.619 12.92-31.354 20.121-6.35 4.698-11.884 4.09-19.238 4.826" stroke="#000" stroke-width="1.704" stroke-linecap="round"/><path d="M70.838 33.275c-6.244 2.927-11.728 7.406-16.894 11.928-1.867 1.634-3.713 3.495-5.038 5.613-1.686 2.695 3.952-1.3 4.319-1.589 5.209-4.11 10.14-8.584 15.12-12.965 2.678-2.356 5.408-4.665 8.01-7.108.043-.04 2.074-1.854.815-1.51-1.74.475-3.377 1.719-4.87 2.67-3.056 1.946-6.024 4.02-8.962 6.137-5.622 4.05-11.132 8.223-16.426 12.693-1.606 1.355-3.155 2.896-.639.242a846.239 846.239 0 0 1 15.94-16.393c3.447-3.445 7.766-6.631 10.728-10.514 1.514-1.983-4.835 1.921-5.166 2.152C60.218 29.898 53.1 35.8 46.2 41.891a165.527 165.527 0 0 0-6.634 6.195c-.266.263-2.041 2.276-1.798 2.14 2.32-1.305 4.26-3.604 6.145-5.438 2.366-2.301 4.72-4.617 7.078-6.926 5.024-4.922 10.117-9.858 14.861-15.053.147-.16 2.83-3.166 1.011-2.527-1.996.7-3.857 2.353-5.527 3.59-7.352 5.442-14.299 11.399-21.167 17.433-2.025 1.779-7.862 7.377-5.906 5.523 4.356-4.13 8.365-8.657 12.627-12.889 4.431-4.4 8.955-8.727 13.568-12.937 3.433-3.133-2.414 1.139-3.263 1.8a206.529 206.529 0 0 0-14.804 12.65c-.492.463-5.148 5.482-2.624 3.012 6.64-6.494 12.798-13.613 20.21-19.276 3.605-2.753 6.338-5.948 9.635-9.092 1.31-1.25 4.406-3.96 4.358-5.982-.023-.972-6.53 3.056-7.23 3.5-2.22 1.411-4.462 2.786-6.647 4.252-1.766 1.184-3.03 2.832-4.687 4.145-3.667 2.906-7.27 6.019-10.794 9.095-1.946 1.7-3.32 3.678-6.205 3.502-2.443-.15-5.237.01-7.635.589-2.887.697-5.714 1.454-8.61 2.131-1.68.393-3.038 1.457-4.446 2.397-1.479.987-3.239 1.736-4.405 3.128-2.547 3.04-5.078 6.227-6.44 10.013-.898 2.5-2.324 4.694-1.775 7.426.35 1.743.614 3.506 1.618 5.042.66 1.008 3.627 5.727 4.66 5.486 2.105-.492 3.788-5.308 4.717-6.824 2.54-4.147 5.51-8.189 8.986-11.606 5.332-5.242 12.663-8.665 17.326-14.552 1.757-2.218 1.589-4.108-1.546-2.941-5.408 2.013-10.607 6.389-14.331 10.722-1.605 1.867-5.291 5.83-5.303 8.677-.003.694 1.562-.78 1.612-.833 2-2.083 3.708-4.549 5.317-6.937.448-.667 5.645-8.206 3.377-8.266-1.995-.053-4.313 2.03-5.774 3.134-2.123 1.603-4.237 3.355-5.984 5.37-1.97 2.272-4.244 4.87-5.39 7.69-.32.789-1.15 3.144-.204 3.833 2.799 2.04 8.27-6.681 9.1-8.1.664-1.136 3.615-8.217.028-7.262-5.85 1.557-10.446 8.1-13.078 13.167-.418.804-3.876 9.614.158 7.332 4.175-2.362 6.906-9.254 8.508-13.481.544-1.436 2.909-9.586-1.402-6.56-3.728 2.617-5.296 8.04-6.405 12.232-.12.45-1.858 5.385-.679 5.74 1.006.302 1.8-3.395 1.16-4.142-1.732-2.02-6.347 6.197-4.873 8.543.243.388 1.025.622 1.384.97.754.73 1.577 1.386 2.334 2.118.902.873 2.089 2.099 3.455 2.062 4.736-.124 9.218-6.585 11.964-9.654 2.66-2.972 5.336-5.93 7.983-8.913 1.32-1.488 3.245-3.135 4.151-4.954.486-.974-.71-.856-1.245-.596-3.302 1.6-6.28 4.275-8.895 6.797-2.165 2.087-4.505 4.252-6.231 6.736-.478.689-1.883 2.887.093 2.451 2.961-.653 5.725-3.434 8.022-5.233 3.77-2.952 7.399-6.041 10.88-9.327 1.14-1.075 4.766-3.6 3.209-3.434-2.335.25-5.497 3.79-7.11 5.184-3.265 2.825-6.565 5.768-9.42 9.017-.395.45-3.856 4.512-1.955 4.765 1.767.235 4.05-1.33 5.466-2.176 4.229-2.526 8.278-5.384 12.274-8.26 2.778-2 5.516-4.08 8.145-6.271 2.489-2.074-.095-.525-1.027.129-4.01 2.813-7.82 5.976-11.507 9.194-2.981 2.602-6.5 5.36-8.769 8.66-.82 1.193-.312 2.02 1.136 1.632 4.375-1.176 8.68-4.849 12.383-7.277 9.64-6.324 18.796-13.508 28.618-19.53 2.176-1.335-3.996 3.18-5.951 4.821-5.662 4.75-11.252 9.636-16.535 14.806-.27.264-6.768 6.454-5.896 7.098 1.018.75 5.758-3.747 6.168-4.075 9.438-7.534 18.862-15.235 29.023-21.79.157-.102.648-.369.504-.249-2.143 1.792-4.357 3.507-6.517 5.278-5.604 4.596-11.204 9.234-16.495 14.192-.043.04-4.293 4.358-3.597 4.556.627.178 1.21-.506 1.754-.865 2.294-1.517 4.473-3.223 6.688-4.85 4.495-3.303 9.026-6.537 13.66-9.642 2.527-1.693 5.148-3.789 7.991-4.977.251-.104.795-.433.8-.162.007.55-2.64 2.518-2.674 2.546-5.687 4.916-11.534 9.646-17.14 14.655-1.605 1.433-3.026 2.727-4.536 4.235-.54.54-1.952 2.255-1.274 1.904 2.782-1.439 5.23-3.773 7.672-5.694 3.99-3.14 8.06-6.223 12.367-8.923.438-.275 8.33-4.538 7.989-2.965-.552 2.555-3.69 5.25-5.347 7.064-2.324 2.543-4.793 4.942-7.275 7.328-.035.034-3.25 3-2.12 2.08 3.093-2.514 6.172-4.95 9.57-7.048 4.795-2.96 9.626-6.034 14.64-8.613.72-.37 1.877-1.216 2.748-1.236.24-.006-.774 1.543-.816 1.614-2.034 3.496-3.325 7.357-5.502 10.833-1.692 2.703-3.326 5.815-5.798 7.893-2.765 2.324-5.428 4.41-8.478 6.368-2.268 1.456-4.532 2.995-6.99 4.095-1.855.83-3.199 2.008-5.188 2.54-2.053.55-3.863 1.565-6.044 1.505-2.287-.064-4.293-.453-6.538-.738-1.637-.207-4.242.878-5.694.198-1.258-.59-2.634-.753-3.891-1.373-3.982-1.964-8.28-2.977-12.424-4.508-3.528-1.302-7.402-1.115-11.012-2.31-1.784-.591-3.678-.676-5.477-1.24-2.436-.764-5.484-4.313-2.058-5.95 2.27-1.085 5.304-2.39 7.874-2.43.499-.009-1.995 2.273-2.248 2.898-1.45 3.569 4.932.862 5.753.373 1.147-.685 3.241-1.778 3.923-3.007.813-1.466-2.935 1.717-4.08 2.941-.217.233-2.874 2.735-1.494 3.206 1.56.532 4.043-1.104 5.247-1.85 2.227-1.38 5.023-3.09 6.654-5.195 1.51-1.948-3.126.793-3.41.991-1.957 1.367-4.21 3.28-5.347 5.417-1.333 2.505 2.63 1.216 3.442.915 3.694-1.373 7.23-3.172 10.688-5.048 2.117-1.149 8.52-4.111 6.128-3.827-2.314.274-4.943 2.353-6.713 3.7-1 .76-4.694 2.968-3.814 4.722 1.786 3.563 13.065-4.335 14.656-5.576.899-.7 3.17-3.307.279-2.759-4.498.853-9.029 3.94-12.809 6.349-1.74 1.11-6.499 3.794-4.49 4.264 1.545.361 4.032-.763 5.346-1.23a51.63 51.63 0 0 0 7.756-3.478c2.849-1.581 6.639-3.503 8.52-6.302 1.733-2.579-1.802-1.772-3.068-1.176-3.766 1.772-7.297 5.182-10.078 8.197-1.791 1.942-5.502 6.895-.141 5.467 4.238-1.13 7.987-3.963 11.586-6.345 4.756-3.146 10.037-6.4 14.055-10.488 6.22-6.33-16.94 8.386-21.116 16.217-1.487 2.79 2.943 1.528 3.964 1.084 4.353-1.894 8.409-4.95 12.156-7.816 3.633-2.778 7.98-5.76 10.544-9.642 2.425-3.672-5.888 1.797-6.167 1.985-5.646 3.807-11.248 8.243-15.94 13.19-.907.957-4.231 5.178-.355 3.88 4.831-1.619 9.319-4.706 13.633-7.33 5.73-3.484 12.019-7.08 16.837-11.797.194-.19 1.248-1.034.779-1.621-.67-.837-3.325 1.22-3.49 1.332-7.04 4.714-13.586 10.413-19.409 16.553-1.799 1.897-6.257 7.529-3.718 6.905 1.94-.476 4.012-2.545 5.485-3.693 2.794-2.177 5.553-4.398 8.329-6.598 4.846-3.84 9.756-7.605 14.536-11.526 2.558-2.099 5.212-4.222 7.348-6.77.387-.462.201-.36-.155-.076-1.449 1.16-2.81 2.455-4.185 3.7-5.134 4.646-10.266 9.292-15.254 14.096-2.074 1.997-8.587 7.666-6.333 5.874 2.34-1.86 4.863-3.632 7.517-5.017 3.243-1.692-6.074 4.076-9.12 6.1-.7.465-6.486 4.598-2.605 3.488 4.404-1.26 8.424-4.906 11.678-7.938 6.175-5.755 11.702-12.203 18.064-17.762.141-.123 2.926-2.585 1.517-.969-1.565 1.797-3.156 3.538-4.626 5.418-3.518 4.499-7.425 8.637-10.977 13.092-.063.078-1.936 2.336-1.554 2.526.475.235 2.675-1.842 3.007-2.092 4.072-3.065 7.908-6.273 11.44-9.95 3.675-3.829 7.597-7.673 10.909-11.822 2.651-3.322 2.8-6.855 2.363-10.9-.189-1.748-.382-3.621-1.126-5.23-1.38-2.98-1.943-6.312-3.707-9.117-2.67-4.248-6.837-7.358-11.25-9.538-1.381-.683-2.702-1.491-4.176-1.984-1.479-.495-6.588 1.956-6.955.872-.41-1.208 1.896-3.125 2.696-3.807.995-.847 2.048-.94 3.288-.907 2.052.054 4.802-.277 6.65.775 1.753.996 3.388 2.196 5.161 3.205 2.317 1.318 4.364 3.185 5.644 5.514 1.35 2.456 3.729 4.358 4.767 6.968 1.218 3.063 2.789 6.524 2.626 9.923-.167 3.484-.413 7.05-1.303 10.443-.729 2.781-3.277 5.984-5.011 8.25-2.716 3.547-5.813 6.425-9.12 9.394-1.755 1.577-.258-.652.18-1.38 2.873-4.785 6.47-9.264 8.968-14.26 1.652-3.303-.332-2.17-2.594-.772-1.839 1.138-3.157 2.024-4.934 3.25-.272.188-2.888 2.462-3.605 2.397-.38-.035.295-.712.52-1.02 1.234-1.7 2.633-3.285 3.918-4.945.48-.62 7.306-9.816 3.96-9.085-3.358.734-6.222 3.646-9.086 5.39-.764.466-.276-.029.037-.342 1.77-1.77 3.665-3.421 5.466-5.16 1.32-1.273 2.588-2.51 3.822-3.863.55-.603 1.902-2.347 1.103-2.184-1.987.405-4.2 2.187-5.782 3.261-2.83 1.922-5.566 3.98-8.33 5.996-.85.62-5.026 3.927-1.815.81 3.592-3.489 7.584-6.843 10.591-10.873.159-.212 1.4-2.016 1.407-2.566.018-1.463-2.861.763-4.126 1.5a82.608 82.608 0 0 0-6.523 4.224c-.744.532-2.834 2.28-2.246 1.58 2.37-2.822 5.268-5.132 7.295-8.256.319-.491 1.464-2.493 1.579-3.23.189-1.213-2.516.28-3.563.92-3.255 1.993-6.084 4.433-8.958 6.922-.556.481-.882.777-.226.11 1.472-1.497 2.981-2.954 4.39-4.514.317-.352 5.22-6.54 4.495-6.67-.42-.077-2.08.941-2.085.944-2.004 1.226-3.882 2.66-5.773 4.05-.136.1-4.597 3.607-3.209 1.957 1.275-1.517 2.624-2.969 3.809-4.56.408-.55 2.03-2.487 1.826-3.414-.084-.383-6.806 4.08-7.364 4.448-3.237 2.128-1.54-.016-.378-1.784.46-.7 3.727-5.351 2.262-6.2-1.585-.919-6.564 3.045-7.776 3.828-1.788 1.157-2.596 1.781-.486.105 2.873-2.281 5.704-4.664 8.72-6.752 1.763-1.22 1.294-.48.511.737-.948 1.474-3.269 5.056.308 4.883 2.745-.134 5.207-1.823 7.532-3.103.138-.076.768-.51.378-.003-1.192 1.55-2.562 2.95-3.742 4.517a57.855 57.855 0 0 0-2.969 4.33c-.232.371-.447.754-.663 1.136-.077.136.187-.25.266-.385 1.725-2.907 3.494-5.793 5.152-8.739 1.573-2.794-3.028 5.684-4.082 8.713-.758 2.178-2.974 9.933 1.878 9.366 1.081-.126 2.635-1.049 3.47-1.67.828-.618 2.93-2.298 1.907-2.443-.997-.142-3.029 2.355-3.485 2.833-1.585 1.66-3.178 3.436-4.362 5.416-1.81 3.027.973 1.094 2.03.173 1.696-1.48 3.841-4.399 6.102-5.022 1.042-.286 1.06 3.105 1.217 3.66.7 2.484 3.287 1.344 4.314 3.04 1.04 1.718-.917 4.454-.657 6.322.438 3.139 5.744-3.035 6.224-3.639 1.248-1.567 2.667-3.629 2.848-5.707.13-1.486-.422-3.017-.555-4.494-.351-3.875-.764-8.202-.542-12.082.075-1.319 1.275-2.018 1.192-3.185-.095-1.332-2.338-2.56-3.383-3.205-1.19-.734-2.85-1.145-3.9-2.044-1.27-1.084-2.1-1.35-3.79-1.75-1.89-.448-4.087-.016-5.849-.72-1.239-.496-4.344-.06-5.014-1.311-.196-.365-.405-.93-.412-1.36-.007-.406.247.116.79.232" stroke="#000" stroke-width="6" stroke-linecap="round"/></svg>